<svg viewBox="0 0 3333 3333" xml:space="preserve" xmlns="http://www.w3.org/2000/svg"><circle cx="1667" cy="1667" r="1667" style="fill:#14a800"/><path d="M2114 1852c-75 0-146-32-210-84l16-73 1-3c14-78 57-209 193-209 102 0 184 83 184 185 0 101-82 184-184 184zm0-555c-173 0-307 112-362 298-83-125-147-276-183-402h-187v485c0 96-78 173-174 174-95-1-173-78-173-174v-485H848v485c0 199 162 361 360 361 199 0 361-162 361-361v-81c36 75 80 152 134 219l-114 537h191l83-389c72 46 156 75 251 75 205 0 371-167 371-371 0-205-166-371-371-371z" style="fill:#fff"/></svg>