<?xml version="1.0" standalone="no"?>
<!DOCTYPE svg PUBLIC "-//W3C//DTD SVG 20010904//EN"
 "http://www.w3.org/TR/2001/REC-SVG-20010904/DTD/svg10.dtd">
<svg version="1.0" xmlns="http://www.w3.org/2000/svg"
 width="512.000000pt" height="512.000000pt" viewBox="0 0 512.000000 512.000000"
 preserveAspectRatio="xMidYMid meet" fill="#0e83cd">

<g transform="translate(0.000000,512.000000) scale(0.100000,-0.100000)"
fill="#000000" stroke="none">
<path d="M2230 5104 c-742 -95 -1409 -516 -1823 -1149 -210 -321 -344 -690
-392 -1075 -20 -162 -20 -478 0 -640 92 -744 509 -1411 1140 -1826 329 -216
695 -350 1085 -399 162 -20 478 -20 640 0 748 93 1416 512 1833 1150 210 321
344 690 392 1075 20 162 20 478 0 640 -92 744 -509 1411 -1140 1826 -329 216
-695 350 -1085 399 -153 19 -501 18 -650 -1z m710 -1211 c0 -47 -89 -2046 -94
-2119 l-6 -72 88 5 c162 8 427 33 515 49 48 9 90 15 92 13 1 -2 -14 -77 -35
-166 -21 -89 -44 -206 -52 -260 l-14 -98 -791 -3 -790 -2 -7 232 c-28 956 -52
1473 -101 2177 -8 118 -15 227 -15 243 l0 28 605 0 605 0 0 -27z" fill="#0e83cd"/>
</g>
</svg>
