<svg version="1.0" xmlns="http://www.w3.org/2000/svg" width="682.667" height="682.667" viewBox="0 0 512 512" fill="#0e83cd"><path d="M223 1.6C148.8 11.1 82.1 53.2 40.7 116.5c-21 32.1-34.4 69-39.2 107.5-2 16.2-2 47.8 0 64 9.2 74.4 50.9 141.1 114 182.6 32.9 21.6 69.5 35 108.5 39.9 16.2 2 47.8 2 64 0 74.8-9.3 141.6-51.2 183.3-115 21-32.1 34.4-69 39.2-107.5 2-16.2 2-47.8 0-64-9.2-74.4-50.9-141.1-114-182.6C363.6 19.8 327 6.4 288 1.5c-15.3-1.9-50.1-1.8-65 .1zm71 121.1c0 4.7-8.9 204.6-9.4 211.9l-.6 7.2 8.8-.5c16.2-.8 42.7-3.3 51.5-4.9 4.8-.9 9-1.5 9.2-1.3.1.2-1.4 7.7-3.5 16.6-2.1 8.9-4.4 20.6-5.2 26l-1.4 9.8-79.1.3-79 .2-.7-23.2c-2.8-95.6-5.2-147.3-10.1-217.7-.8-11.8-1.5-22.7-1.5-24.3V120h121v2.7z" fill="#0e83cd"/></svg>