
        <svg xmlns="http://www.w3.org/2000/svg" xmlns:xlink="http://www.w3.org/1999/xlink" version="1.1" width="330" 
        height="110" viewBox="0 0 330 110">
			
		<defs id="SvgjsDefs3147"></defs><g id="SvgjsG3148" featurekey="rootContainer" transform="matrix(1,0,0,1,0,0)" fill="#25475c"><rect xmlns="http://www.w3.org/2000/svg" width="330" height="110" rx="10" ry="10"></rect></g><g id="SvgjsG3149" featurekey="nameFeature-0" transform="matrix(0.6993111769600092,0,0,0.6993111769600092,20.009625669127427,13.818090422797319)" fill="#ffffff"><path d="M15.88 9.8 c2.88 0 5.28 1.76 6.4 4.44 l9.24 22 c0.68 1.64 0.04 2.92 -1.48 3.56 c-1.24 0.52 -2.92 0 -3.52 -1.64 l-2.72 -6.48 l-15.84 0 l-2.72 6.56 c-0.52 1.24 -2.04 2.12 -3.48 1.56 s-2.12 -2.16 -1.6 -3.48 l9.28 -22.08 c1.12 -2.68 3.56 -4.44 6.44 -4.44 z M15.88 15.239999999999998 c-0.6 0 -1.16 0.36 -1.4 0.96 l-4.24 10.12 l11.32 0 l-4.28 -10.12 c-0.24 -0.6 -0.8 -0.96 -1.4 -0.96 z M38.24 9.8 l11.56 0 c4.92 0 8.92 4 8.92 8.88 c0 2.36 -0.88 4.56 -2.52 6.2 c1.6 1.68 2.52 3.88 2.52 6.2 c0 2.4 -0.92 4.64 -2.6 6.32 s-3.92 2.6 -6.32 2.6 l-11.56 0 c-2.2 0 -4.04 -1.8 -4.04 -4.04 l0 -22.12 c0 -2.24 1.84 -4.04 4.04 -4.04 z M39.6 15.16 l0 7.04 l10.24 0 c1.96 0 3.52 -1.56 3.52 -3.52 c0 -1.92 -1.56 -3.52 -3.52 -3.52 l-10.24 0 z M39.6 27.6 l0 7 l10.24 0 c1.96 0 3.52 -1.56 3.52 -3.52 c0 -1.84 -1.44 -3.48 -3.32 -3.48 l-10.44 0 z M84.88 9.8 c1.48 0 2.68 1.2 2.68 2.68 l0 15.52 c0 7.2 -5.76 12.92 -12.92 12.92 s-12.92 -5.72 -12.92 -12.92 l0 -15.52 c0 -1.48 1.2 -2.68 2.68 -2.68 c1.44 0 2.64 1.2 2.64 2.68 l0 15.52 c0 4.24 3.36 7.6 7.6 7.6 s7.6 -3.36 7.6 -7.6 l0 -15.52 c0 -1.48 1.16 -2.68 2.64 -2.68 z M91.48 9.8 l14.8 0 c4.92 0 8.88 3.96 8.88 8.88 c0 4.84 -3.84 8.76 -8.64 8.92 l7.88 7.84 c1.04 1.04 1.04 2.72 0 3.76 c-1 1 -2.72 1.04 -3.76 0.08 l-11.68 -11.64 c-1.72 0 -3.04 1.68 -3.04 3.48 l0 6.2 c0 1.48 -1.2 2.68 -2.68 2.68 s-2.68 -1.2 -2.68 -2.68 l0 -26.6 c0 -0.52 0.4 -0.92 0.92 -0.92 z M95.92 15.16 l0 7.76 c1.08 -0.48 2.32 -0.72 3.56 -0.72 l6.8 0 c1.96 0 3.52 -1.56 3.52 -3.52 c0 -1.92 -1.56 -3.52 -3.52 -3.52 l-10.36 0 z M121.64 9.8 l17.88 0 c1.48 0 2.68 1.2 2.68 2.68 c0 1.44 -1.2 2.64 -2.68 2.64 l-16.6 0 l0 7.08 l6.92 0 c1.48 0 2.68 1.2 2.68 2.64 c0 1.48 -1.2 2.68 -2.68 2.68 l-6.92 0 l0 7.16 l16.6 0 c1.48 0 2.68 1.2 2.68 2.68 c0 1.44 -1.2 2.64 -2.68 2.64 l-17.88 0 c-2.24 0 -4.04 -1.8 -4.04 -4.04 l0 -22.12 c0 -2.24 1.8 -4.04 4.04 -4.04 z M169.39999999999998 9.8 c1.48 0 2.68 1.2 2.68 2.64 l0 24.88 c0 1.48 -1.2 2.68 -2.68 2.68 s-2.64 -1.2 -2.64 -2.68 l0 -9.8 l-16.24 0 l0 9.8 c0 1.48 -1.2 2.68 -2.64 2.68 c-1.48 0 -2.68 -1.2 -2.68 -2.68 l0 -24.88 c0 -1.44 1.2 -2.64 2.68 -2.64 c1.44 0 2.64 1.2 2.64 2.64 l0 9.72 l16.24 0 l0 -9.72 c0 -1.44 1.16 -2.64 2.64 -2.64 z M190.95999999999998 9.8 c2.88 0 5.28 1.76 6.4 4.44 l9.24 22 c0.68 1.64 0.04 2.92 -1.48 3.56 c-1.24 0.52 -2.92 0 -3.52 -1.64 l-2.72 -6.48 l-15.84 0 l-2.72 6.56 c-0.52 1.24 -2.04 2.12 -3.48 1.56 s-2.12 -2.16 -1.6 -3.48 l9.28 -22.08 c1.12 -2.68 3.56 -4.44 6.44 -4.44 z M190.95999999999998 15.239999999999998 c-0.6 0 -1.16 0.36 -1.4 0.96 l-4.24 10.12 l11.32 0 l-4.28 -10.12 c-0.24 -0.6 -0.8 -0.96 -1.4 -0.96 z M213.31999999999996 9.8 l11.56 0 c4.92 0 8.92 4 8.92 8.88 c0 2.36 -0.88 4.56 -2.52 6.2 c1.6 1.68 2.52 3.88 2.52 6.2 c0 2.4 -0.92 4.64 -2.6 6.32 s-3.92 2.6 -6.32 2.6 l-11.56 0 c-2.2 0 -4.04 -1.8 -4.04 -4.04 l0 -22.12 c0 -2.24 1.84 -4.04 4.04 -4.04 z M214.67999999999998 15.16 l0 7.04 l10.24 0 c1.96 0 3.52 -1.56 3.52 -3.52 c0 -1.92 -1.56 -3.52 -3.52 -3.52 l-10.24 0 z M214.67999999999998 27.6 l0 7 l10.24 0 c1.96 0 3.52 -1.56 3.52 -3.52 c0 -1.84 -1.44 -3.48 -3.32 -3.48 l-10.44 0 z M250.83999999999997 9.8 l8.88 0 c9.24 0 15.12 7.44 15.12 15.08 c0 8.32 -6.8 15.12 -15.12 15.12 l-8.88 0 c-2.2 0 -4.04 -1.8 -4.04 -4.04 l0 -22.12 c0 -2.24 1.84 -4.04 4.04 -4.04 z M252.11999999999998 15.120000000000001 l0 19.56 l7.56 0 c5.4 0 9.84 -4.32 9.84 -9.72 c0.08 -5.36 -4.32 -9.84 -9.68 -9.84 l-7.72 0 z M279.92 9.8 c1.44 0 2.64 1.2 2.64 2.64 l0 24.88 c0 1.48 -1.2 2.68 -2.64 2.68 c-1.48 0 -2.68 -1.2 -2.68 -2.68 l0 -24.88 c0 -1.44 1.2 -2.64 2.68 -2.64 z M301.44 8.84 c1.44 0 2.64 1.2 2.64 2.68 c0 1.44 -1.2 2.64 -2.64 2.64 c-5.96 0 -10.76 4.8 -10.76 10.72 c0 5.8 4.72 10.76 10.76 10.76 c4.88 0 9.08 -3.32 10.36 -8.04 l-10.36 0 c-1.52 0 -2.72 -1.2 -2.72 -2.68 s1.2 -2.68 2.72 -2.68 l13.36 0 c1.48 0 2.68 1.2 2.68 2.64 c0 9.48 -7.68 16.08 -16.04 16.08 c-9.52 0 -16.08 -7.84 -16.08 -16.08 c0 -7.28 5.8 -16.04 16.08 -16.04 z M322.56 9.8 c1.44 0 2.64 1.2 2.64 2.64 l0 24.88 c0 1.48 -1.2 2.68 -2.64 2.68 c-1.48 0 -2.68 -1.2 -2.68 -2.68 l0 -24.88 c0 -1.44 1.2 -2.64 2.68 -2.64 z M330.88 9.8 l22.72 0 c1.48 0 2.68 1.2 2.68 2.68 c0 1.44 -1.2 2.64 -2.68 2.64 l-8.64 0 l0 22.24 c0 1.44 -1.2 2.64 -2.68 2.64 s-2.68 -1.2 -2.68 -2.64 l0 -22.24 l-8.72 0 c-1.48 0 -2.68 -1.2 -2.68 -2.64 c0 -1.48 1.2 -2.68 2.68 -2.68 z M374.56 9.8 c2.88 0 5.28 1.76 6.4 4.44 l9.24 22 c0.68 1.64 0.04 2.92 -1.48 3.56 c-1.24 0.52 -2.92 0 -3.52 -1.64 l-2.72 -6.48 l-15.84 0 l-2.72 6.56 c-0.52 1.24 -2.04 2.12 -3.48 1.56 s-2.12 -2.16 -1.6 -3.48 l9.28 -22.08 c1.12 -2.68 3.56 -4.44 6.44 -4.44 z M374.56 15.239999999999998 c-0.6 0 -1.16 0.36 -1.4 0.96 l-4.24 10.12 l11.32 0 l-4.28 -10.12 c-0.24 -0.6 -0.8 -0.96 -1.4 -0.96 z M395.56 9.8 c1.44 0 2.64 1.2 2.64 2.68 l0 22.2 l13.84 0 c1.44 0 2.64 1.2 2.64 2.68 c0 1.44 -1.2 2.64 -2.64 2.64 l-15.12 0 c-2.24 0 -4.04 -1.8 -4.04 -4.04 l0 -23.48 c0 -1.48 1.2 -2.68 2.68 -2.68 z"></path></g><g id="SvgjsG3150" featurekey="nameFeature-1" transform="matrix(1.1784784617197142,0,0,1.1784784617197142,19.99999887611536,41.582252466345466)" fill="#ffffff"><path d="M8.92 9.8 l11.8 0 c1.48 0 2.68 1.2 2.68 2.68 s-1.2 2.68 -2.68 2.68 l-11.84 0 c-1.96 0 -3.52 1.6 -3.52 3.52 c0 1.96 1.56 3.52 3.52 3.52 l8.16 0 c4.92 0 8.88 4 8.88 8.92 s-3.96 8.88 -8.88 8.88 l-13.04 0 c-1.48 0 -2.68 -1.2 -2.68 -2.68 c0 -1.44 1.16 -2.64 2.6 -2.68 l13.12 0 c1.96 0 3.52 -1.56 3.52 -3.52 c0 -1.92 -1.56 -3.52 -3.52 -3.52 l-8.12 0 c-4.92 0 -8.92 -3.96 -8.92 -8.88 s4 -8.92 8.92 -8.92 z M44.800000000000004 8.84 c10.2 0 16.04 8.56 16.04 16.08 c0 9.52 -7.68 16.04 -16.04 16.04 c-9.64 0 -16.08 -7.8 -16.08 -16.04 c0 -8 6.52 -16.08 16.08 -16.08 z M44.800000000000004 14.2 c-5.8 0 -10.76 4.68 -10.76 10.72 c0 5.92 4.8 10.72 10.76 10.72 c5.76 0 10.72 -4.72 10.72 -10.72 c0 -5.8 -4.72 -10.72 -10.72 -10.72 z M65.92 9.8 c1.44 0 2.64 1.2 2.64 2.68 l0 22.2 l13.84 0 c1.44 0 2.64 1.2 2.64 2.68 c0 1.44 -1.2 2.64 -2.64 2.64 l-15.12 0 c-2.24 0 -4.04 -1.8 -4.04 -4.04 l0 -23.48 c0 -1.48 1.2 -2.68 2.68 -2.68 z M110.6 9.8 c1.48 0 2.68 1.2 2.68 2.68 l0 15.52 c0 7.2 -5.76 12.92 -12.92 12.92 s-12.92 -5.72 -12.92 -12.92 l0 -15.52 c0 -1.48 1.2 -2.68 2.68 -2.68 c1.44 0 2.64 1.2 2.64 2.68 l0 15.52 c0 4.24 3.36 7.6 7.6 7.6 s7.6 -3.36 7.6 -7.6 l0 -15.52 c0 -1.48 1.16 -2.68 2.64 -2.68 z M118.96000000000001 9.8 l22.72 0 c1.48 0 2.68 1.2 2.68 2.68 c0 1.44 -1.2 2.64 -2.68 2.64 l-8.64 0 l0 22.24 c0 1.44 -1.2 2.64 -2.68 2.64 s-2.68 -1.2 -2.68 -2.64 l0 -22.24 l-8.72 0 c-1.48 0 -2.68 -1.2 -2.68 -2.64 c0 -1.48 1.2 -2.68 2.68 -2.68 z M149.44 9.8 c1.44 0 2.64 1.2 2.64 2.64 l0 24.88 c0 1.48 -1.2 2.68 -2.64 2.68 c-1.48 0 -2.68 -1.2 -2.68 -2.68 l0 -24.88 c0 -1.44 1.2 -2.64 2.68 -2.64 z M170.95999999999998 8.84 c10.2 0 16.04 8.56 16.04 16.08 c0 9.52 -7.68 16.04 -16.04 16.04 c-9.64 0 -16.08 -7.8 -16.08 -16.04 c0 -8 6.52 -16.08 16.08 -16.08 z M170.95999999999998 14.2 c-5.8 0 -10.76 4.68 -10.76 10.72 c0 5.92 4.8 10.72 10.76 10.72 c5.76 0 10.72 -4.72 10.72 -10.72 c0 -5.8 -4.72 -10.72 -10.72 -10.72 z M214.47999999999996 9.8 c1.48 0 2.68 1.2 2.68 2.68 l0 24.76 c0 1 -0.4 1.84 -1.32 2.4 c-1.2 0.68 -2.88 0.4 -3.68 -0.96 l-14.56 -22.64 c-0.68 -1 -1.64 -0.96 -2.08 -0.68 c-0.48 0.24 -0.72 0.72 -0.76 1.24 l0 20.68 c0 1.48 -1.2 2.68 -2.68 2.68 s-2.68 -1.2 -2.68 -2.68 l0 -20.72 c0.04 -2.44 1.32 -4.64 3.4 -5.88 c3.28 -1.88 7.28 -0.72 9.32 2.48 l9.68 15.04 l0 -15.72 c0 -1.48 1.2 -2.68 2.68 -2.68 z M229.07999999999996 9.8 l11.8 0 c1.48 0 2.68 1.2 2.68 2.68 s-1.2 2.68 -2.68 2.68 l-11.84 0 c-1.96 0 -3.52 1.6 -3.52 3.52 c0 1.96 1.56 3.52 3.52 3.52 l8.16 0 c4.92 0 8.88 4 8.88 8.92 s-3.96 8.88 -8.88 8.88 l-13.04 0 c-1.48 0 -2.68 -1.2 -2.68 -2.68 c0 -1.44 1.16 -2.64 2.6 -2.68 l13.12 0 c1.96 0 3.52 -1.56 3.52 -3.52 c0 -1.92 -1.56 -3.52 -3.52 -3.52 l-8.12 0 c-4.92 0 -8.92 -3.96 -8.92 -8.88 s4 -8.92 8.92 -8.92 z"></path></g>
		</svg>
	